<svg xmlns="http://www.w3.org/2000/svg" viewBox="0 0 639 1165" fill-rule="evenodd">
<path fill="#ffffff" d="M 53.528 11.250 C 53.173 12.334, 52.670 20.549, 51.582 43 C 51.435 46.025, 50.989 60.200, 50.591 74.500 C 50.193 88.800, 49.437 104.193, 48.911 108.706 C 48.385 113.220, 47.545 126.495, 47.045 138.206 C 44.563 196.351, 41.820 251.578, 40.500 270 C 39.692 281.275, 38.799 296.012, 38.515 302.750 C 38.232 309.488, 37.770 320.512, 37.489 327.250 C 37.208 333.988, 36.739 342.425, 36.447 346 C 36.155 349.575, 35.276 368.025, 34.495 387 C 33.713 405.975, 32.624 427.575, 32.074 435 C 31.525 442.425, 30.374 464.025, 29.517 483 C 28.660 501.975, 27.726 521.325, 27.441 526 C 27.157 530.675, 26.510 544.175, 26.005 556 C 25.500 567.825, 24.648 582.900, 24.112 589.500 C 23.575 596.100, 22.636 613.875, 22.024 629 C 21.412 644.125, 20.678 658.121, 20.393 660.102 C 19.884 663.636, 19.956 663.726, 24.187 664.827 C 32.563 667.006, 41.603 668.958, 50.500 670.508 C 55.450 671.370, 63.550 672.942, 68.500 674.002 C 85.900 677.726, 92.547 679.086, 97.500 679.939 C 100.250 680.412, 106.550 681.720, 111.500 682.846 C 116.450 683.972, 125.450 685.790, 131.500 686.886 C 137.550 687.982, 145.650 689.581, 149.500 690.439 C 159.071 692.573, 159.633 692.492, 160.927 688.780 C 167.408 670.189, 185.217 638.913, 199.570 620.916 C 219.760 595.599, 248.796 574.207, 276 564.607 C 280.125 563.151, 284.400 561.565, 285.500 561.081 C 287.904 560.026, 303.600 556.581, 314 554.826 C 324.151 553.114, 361.720 553.113, 369 554.825 C 391.633 560.149, 403.076 564.598, 415.066 572.737 C 441.854 590.921, 458.541 621.229, 463.144 660.058 C 465.071 676.319, 465.136 975.313, 463.216 994 C 461.556 1010.154, 459.145 1023.231, 455.840 1034 C 440.302 1084.639, 409.658 1113.999, 360 1125.825 C 343.889 1129.662, 335.958 1130.446, 313 1130.469 C 287.419 1130.495, 280.129 1129.599, 259.904 1123.943 C 201.307 1107.556, 166.470 1058.788, 160.473 984.750 C 160.350 983.237, 160.194 960.850, 160.125 935 L 160 888 84.750 887.999 L 9.500 887.999 10.050 954.249 C 10.630 1024.263, 11.157 1032.388, 16.451 1053 C 17.228 1056.025, 18.626 1061.875, 19.558 1066 C 23.251 1082.343, 33.821 1110.242, 42.771 1127.269 C 48.106 1137.417, 55.688 1150.688, 57.131 1152.405 C 57.637 1153.007, 59.744 1155.975, 61.813 1159 L 65.574 1164.500 319.321 1164.752 L 573.069 1165.004 581.132 1152.752 C 589.537 1139.980, 604.202 1111.212, 608.023 1100 C 609.242 1096.425, 610.824 1092.150, 611.540 1090.500 C 614.625 1083.391, 623.131 1049.182, 624.844 1037 C 625.424 1032.875, 626.411 1025.450, 627.039 1020.500 C 627.666 1015.550, 628.453 1010.150, 628.787 1008.500 C 629.121 1006.850, 629.565 924.500, 629.773 825.500 C 630.186 629.847, 630.225 631.483, 624.394 599.500 C 623.047 592.114, 622.022 587.929, 617.536 571.500 C 610.159 544.482, 591.722 511.645, 570.873 488.391 C 543.575 457.944, 498.722 432.956, 458 425.509 C 453.325 424.655, 447.475 423.510, 445 422.965 C 427.626 419.144, 378.928 418.369, 355 421.532 C 333.065 424.432, 330.608 424.799, 325 426.010 C 321.975 426.663, 317.475 427.604, 315 428.100 C 299.708 431.168, 274.744 439.851, 256.330 448.507 C 245.375 453.657, 225.692 465.464, 218.500 471.200 C 217.950 471.639, 214.818 474.136, 211.539 476.749 C 198.593 487.069, 186.976 499.250, 174.586 515.500 C 171.073 520.107, 170.821 520.264, 171.374 517.500 C 171.704 515.850, 172.445 506.625, 173.020 497 C 174.515 471.982, 174.797 467.716, 176.486 444.531 C 177.319 433.097, 178 420.398, 178 416.312 C 178 412.226, 178.440 405.872, 178.978 402.192 C 179.987 395.289, 181.073 379.240, 185.964 299 C 186.450 291.025, 187.316 279.550, 187.888 273.500 C 188.461 267.450, 189.636 251.025, 190.501 237 C 191.366 222.975, 192.507 205.673, 193.037 198.550 C 193.567 191.428, 194 182.344, 194 178.365 C 194 174.386, 194.439 169.976, 194.975 168.565 C 195.950 166, 195.950 166, 352.225 165.980 C 523.353 165.959, 521.493 166.016, 544.397 160.069 C 569.741 153.488, 587.906 141.535, 601.557 122.456 C 608.068 113.357, 618 91.435, 618 86.165 C 618 85.194, 618.379 83.972, 618.842 83.450 C 620.549 81.523, 624.510 63.302, 626.004 50.500 C 626.582 45.550, 627.437 39.025, 627.904 36 C 628.372 32.975, 629.083 25.888, 629.485 20.250 L 630.216 10 342.076 10 C 112.450 10, 53.854 10.254, 53.528 11.250"/>
</svg>
